<?xml version="1.0" standalone="no"?>
<!DOCTYPE svg PUBLIC "-//W3C//DTD SVG 20010904//EN"
 "http://www.w3.org/TR/2001/REC-SVG-20010904/DTD/svg10.dtd">
<svg version="1.0" xmlns="http://www.w3.org/2000/svg"
 width="200.000000pt" height="200.000000pt" viewBox="0 0 200.000000 200.000000"
 preserveAspectRatio="xMidYMid meet">

<g transform="translate(0.000000,200.000000) scale(0.100000,-0.100000)"
fill="#000000" stroke="none">
<path d="M0 1000 l0 -1000 1000 0 1000 0 0 1000 0 1000 -1000 0 -1000 0 0
-1000z m1208 388 c186 -89 193 -94 201 -128 5 -19 28 -117 51 -217 l42 -183
-139 -174 -138 -175 -222 -1 -223 0 -140 175 -140 175 50 217 c28 120 54 219
58 221 4 1 90 43 192 92 102 49 192 90 200 90 8 0 102 -41 208 -92z"/>
<path d="M970 1296 c-23 -13 -25 -22 -30 -96 l-5 -82 -64 47 c-59 44 -65 46
-92 34 -31 -12 -49 -36 -49 -63 0 -8 30 -38 66 -65 42 -32 61 -52 53 -56 -8
-2 -45 -13 -84 -23 -66 -18 -70 -21 -79 -54 -7 -27 -5 -40 8 -60 l17 -26 86
24 c48 13 88 23 89 21 2 -1 -15 -41 -36 -87 l-38 -85 26 -28 c19 -20 35 -27
55 -25 24 3 32 13 65 85 20 45 40 83 43 83 3 0 23 -38 44 -85 36 -81 39 -85
69 -85 24 0 38 8 54 30 21 28 21 32 8 58 -8 16 -26 55 -40 86 l-26 58 23 -6
c12 -3 52 -14 89 -25 l68 -20 19 27 c16 23 17 32 7 61 -10 32 -16 36 -81 53
-38 11 -76 21 -84 24 -8 3 12 23 53 52 51 36 66 53 66 72 0 31 -8 44 -37 59
-32 16 -35 15 -102 -34 -34 -25 -63 -45 -66 -45 -3 0 -5 36 -5 80 0 78 -1 80
-30 95 -34 18 -29 18 -60 1z"/>
</g>
</svg>
